<svg xmlns="http://www.w3.org/2000/svg" viewBox="0 0 64 64">
  <!-- steak silhouette -->
  <path d="M14 38 C12 30 16 20 24 16 C30 14 34 16 38 14 C44 12 52 18 52 26 C52 34 48 44 40 48 C34 50 28 50 22 48 C16 46 14 42 14 38 Z" fill="#8B2A10"/>
  <!-- cooked surface -->
  <path d="M18 36 C16 30 20 22 26 18 C31 16 35 18 38 16 C43 14 50 20 50 26 C50 32 46 42 38 46 C32 48 26 48 20 46 C18 44 18 40 18 36 Z" fill="#B83A18"/>
  <!-- char marks / grill lines -->
  <path d="M20 28 Q30 24 40 28" stroke="#6B1A08" stroke-width="3" fill="none" stroke-linecap="round" opacity="0.7"/>
  <path d="M22 36 Q32 32 42 36" stroke="#6B1A08" stroke-width="3" fill="none" stroke-linecap="round" opacity="0.7"/>
  <!-- fat marbling -->
  <path d="M30 20 C32 24 28 28 30 32" stroke="#E8C090" stroke-width="2" fill="none" opacity="0.5" stroke-linecap="round"/>
  <path d="M38 24 C40 28 36 32 38 36" stroke="#E8C090" stroke-width="2" fill="none" opacity="0.5" stroke-linecap="round"/>
</svg>
