<svg xmlns="http://www.w3.org/2000/svg" viewBox="0 0 64 64">
  <path d="M32 16 C20 16 12 24 12 36 C12 48 20 54 32 54 C44 54 52 48 52 36 C52 24 44 16 32 16Z" fill="#C8A0D0"/>
  <path d="M32 16 C28 14 26 12 27 10 C28 8 32 8 32 8 C32 8 36 8 37 10 C38 12 36 14 32 16Z" fill="#8A6A9A"/>
  <path d="M20 30 Q26 24 32 30 Q38 36 44 30" stroke="#A880B8" stroke-width="1.5" fill="none"/>
  <path d="M18 38 Q24 32 32 38 Q40 44 46 38" stroke="#A880B8" stroke-width="1.5" fill="none"/>
  <path d="M32 16 Q38 20 42 28" stroke="#A880B8" stroke-width="1" fill="none" opacity="0.5"/>
  <path d="M32 16 Q26 20 22 28" stroke="#A880B8" stroke-width="1" fill="none" opacity="0.5"/>
</svg>
