<svg xmlns="http://www.w3.org/2000/svg" viewBox="0 0 64 64">
  <!-- bowl -->
  <path d="M10 34 Q10 56 32 56 Q54 56 54 34 Z" fill="#E8D8C0"/>
  <path d="M10 34 Q10 56 32 56 Q54 56 54 34 Z" fill="none" stroke="#C8A880" stroke-width="2"/>
  <!-- bowl rim -->
  <ellipse cx="32" cy="34" rx="22" ry="6" fill="#D8C8A8"/>
  <!-- rice mound -->
  <ellipse cx="32" cy="30" rx="18" ry="10" fill="white"/>
  <!-- rice grain details -->
  <ellipse cx="24" cy="28" rx="3" ry="2" fill="#F0ECE8" transform="rotate(-20 24 28)"/>
  <ellipse cx="32" cy="25" rx="3" ry="2" fill="#F0ECE8"/>
  <ellipse cx="40" cy="28" rx="3" ry="2" fill="#F0ECE8" transform="rotate(20 40 28)"/>
  <ellipse cx="26" cy="32" rx="3" ry="2" fill="#F0ECE8" transform="rotate(-10 26 32)"/>
  <ellipse cx="34" cy="31" rx="3" ry="2" fill="#F0ECE8" transform="rotate(10 34 31)"/>
  <ellipse cx="42" cy="32" rx="3" ry="2" fill="#F0ECE8" transform="rotate(15 42 32)"/>
  <ellipse cx="20" cy="32" rx="2.5" ry="1.8" fill="#F0ECE8" transform="rotate(-25 20 32)"/>
  <ellipse cx="44" cy="30" rx="2.5" ry="1.8" fill="#F0ECE8" transform="rotate(25 44 30)"/>
</svg>
