<svg xmlns="http://www.w3.org/2000/svg" viewBox="0 0 64 64">
  <path d="M32 54 C22 46 12 38 14 26 C16 16 24 14 32 16 C40 14 48 16 50 26 C52 38 42 46 32 54Z" fill="#E83030"/>
  <path d="M24 14 C24 10 28 8 32 9 C36 8 40 10 40 14" fill="#5A8A2A"/>
  <path d="M28 10 C28 6 32 5 32 5 C32 5 36 6 36 10" fill="#6AAA3A"/>
  <circle cx="25" cy="28" r="2" fill="#FFE0E0" opacity="0.6"/>
  <circle cx="35" cy="24" r="1.5" fill="#FFE0E0" opacity="0.6"/>
  <circle cx="30" cy="36" r="1.5" fill="#FFE0E0" opacity="0.6"/>
  <circle cx="40" cy="32" r="1.5" fill="#FFE0E0" opacity="0.6"/>
  <circle cx="22" cy="38" r="1.5" fill="#FFE0E0" opacity="0.6"/>
</svg>
